<svg width="32" height="32" viewBox="0 0 32 32" fill="none" xmlns="http://www.w3.org/2000/svg">
  <rect width="32" height="32" rx="6" fill="#6366f1"/>
  <path d="M16 6C10.64 6 6.25 10.12 6.25 15.25C6.25 16.98 6.77 18.625 7.72 20.0475L6.25 26L12.1775 24.6725C13.5 25.43 15.025 25.875 16.625 25.875C21.985 25.875 26.375 21.755 26.375 16.625C26.375 11.495 21.985 6 16 6ZM16 24C14.845 24 13.74 23.7175 12.76 23.2075L12.525 23.0775L9.3625 23.8575L10.1425 20.855L9.98 20.6L9.98 20.5975C9.3925 19.595 9.0625 18.4525 9.0625 17.25C9.0625 12.645 12.855 8.875 17.5 8.875C22.145 8.875 25.9375 12.645 25.9375 17.25C25.9375 21.855 22.145 25.625 17.5 25.625C17.335 25.625 17.1675 25.6175 17 25.605V24Z" fill="white"/>
</svg>
